# xmcd
#
# Track frame offsets:
#	150
#	15366
#	28751
#	43415
#	56460
#	72028
#	86552
#	94665
#	108448
#	125337
#	138001
#	151627
#
# Disc length: 2186 seconds
#
# Revision: 0
# Processed by: cddbd v1.5.2PL0 Copyright (c) Steve Scherf et al.
# Submitted via: EZCDAudioConverter 5.1.0.1
#
DISCID=8c08880c
DTITLE=Little Hurricane - Same Sun Same Moon
DYEAR=2017
DGENRE=Blues
TTITLE0=Same Sun Same Moon
TTITLE1=Bad Business
TTITLE2=OTL
TTITLE3=Isn't It Great
TTITLE4=Take It Slow
TTITLE5=Lake Tahoe Eyes
TTITLE6=March Of The Living
TTITLE7=Mt. Señorita
TTITLE8=For Life
TTITLE9=You Remind Me
TTITLE10=Slingshot
TTITLE11=Moon's Gone Cold
EXTD=
EXTT0=
EXTT1=
EXTT2=
EXTT3=
EXTT4=
EXTT5=
EXTT6=
EXTT7=
EXTT8=
EXTT9=
EXTT10=
EXTT11=
PLAYORDER=
